<svg xmlns="http://www.w3.org/2000/svg" xmlns:xlink="http://www.w3.org/1999/xlink" width="500" zoomAndPan="magnify" viewBox="0 0 375 374.999991" height="500" preserveAspectRatio="xMidYMid meet" version="1.0"><defs><g/><clipPath id="id1"><path d="M 41.0625 44.628906 L 333.5625 44.628906 L 333.5625 337.128906 L 41.0625 337.128906 Z M 41.0625 44.628906 " clip-rule="nonzero"/></clipPath><clipPath id="id2"><path d="M 187.3125 44.628906 C 106.542969 44.628906 41.0625 110.105469 41.0625 190.878906 C 41.0625 271.648438 106.542969 337.128906 187.3125 337.128906 C 268.085938 337.128906 333.5625 271.648438 333.5625 190.878906 C 333.5625 110.105469 268.085938 44.628906 187.3125 44.628906 " clip-rule="nonzero"/></clipPath><clipPath id="id3"><path d="M 128.925781 189 L 240 189 L 240 202.914062 L 128.925781 202.914062 Z M 128.925781 189 " clip-rule="nonzero"/></clipPath><clipPath id="id4"><path d="M 134 197 L 235 197 L 235 202.914062 L 134 202.914062 Z M 134 197 " clip-rule="nonzero"/></clipPath><clipPath id="id5"><path d="M 179 71.664062 L 200 71.664062 L 200 132 L 179 132 Z M 179 71.664062 " clip-rule="nonzero"/></clipPath></defs><g clip-path="url(#id1)"><g clip-path="url(#id2)"><path stroke-linecap="butt" transform="matrix(0.74907, 0, 0, 0.74907, 41.063596, 44.627191)" fill="none" stroke-linejoin="miter" d="M 195.240737 0.00229028 C 87.414269 0.00229028 -0.00146342 87.412808 -0.00146342 195.244491 C -0.00146342 303.070959 87.414269 390.486691 195.240737 390.486691 C 303.072421 390.486691 390.482938 303.070959 390.482938 195.244491 C 390.482938 87.412808 303.072421 0.00229028 195.240737 0.00229028 " stroke="#ffffff" stroke-width="20" stroke-opacity="1" stroke-miterlimit="4"/></g></g><path fill="#ffffff" d="M 182.074219 134.164062 L 134.429688 134.164062 C 134.429688 134.164062 134.429688 170.472656 159.324219 191.359375 L 209.3125 191.359375 C 234.210938 170.472656 234.210938 134.164062 234.210938 134.164062 L 182.074219 134.164062 " fill-opacity="1" fill-rule="nonzero"/><path fill="#ffffff" d="M 209.3125 191.359375 L 159.324219 191.359375 C 134.53125 170.558594 134.429688 134.460938 134.429688 134.164062 L 148.566406 134.164062 C 156.945312 145.179688 176.324219 172.890625 223.839844 173.359375 C 220.324219 179.789062 215.617188 186.066406 209.3125 191.359375 " fill-opacity="1" fill-rule="nonzero"/><g clip-path="url(#id3)"><path fill="#ffffff" d="M 128.953125 189.585938 C 129.285156 196.917969 142.230469 202.761719 148.820312 202.761719 L 219.820312 202.761719 C 226.410156 202.761719 239.351562 196.917969 239.683594 189.585938 L 128.953125 189.585938 " fill-opacity="1" fill-rule="nonzero"/></g><g clip-path="url(#id4)"><path fill="#ffffff" d="M 134.066406 197.292969 C 138.503906 200.613281 144.824219 202.761719 148.820312 202.761719 L 219.820312 202.761719 C 223.8125 202.761719 230.132812 200.613281 234.574219 197.292969 L 134.066406 197.292969 " fill-opacity="1" fill-rule="nonzero"/></g><path fill="#ffffff" d="M 233.871094 139.65625 C 233.871094 139.65625 252.425781 130.347656 256.664062 144.542969 C 260.203125 156.410156 240.925781 172.308594 222.632812 175.480469 L 224.253906 172.296875 C 224.253906 172.296875 254.367188 154.558594 248.1875 146.238281 C 242.679688 138.824219 232.722656 147.722656 232.722656 147.722656 L 233.871094 139.65625 " fill-opacity="1" fill-rule="nonzero"/><g clip-path="url(#id5)"><path fill="#ffffff" d="M 187.390625 131.417969 C 187.390625 131.417969 201.796875 120.683594 199.253906 105.148438 C 196.710938 89.613281 182.585938 81.421875 187.390625 71.816406 C 187.390625 71.816406 178.632812 77.75 180.054688 88.199219 C 181.285156 97.265625 196.992188 119.269531 187.390625 131.417969 " fill-opacity="1" fill-rule="nonzero"/></g><path fill="#ffffff" d="M 174.128906 131.417969 C 174.128906 131.417969 183.820312 124.191406 182.109375 113.738281 C 180.398438 103.285156 170.894531 97.769531 174.128906 91.304688 C 174.128906 91.304688 168.234375 95.296875 169.1875 102.332031 C 170.019531 108.433594 180.589844 123.242188 174.128906 131.417969 " fill-opacity="1" fill-rule="nonzero"/><g fill="#ffffff" fill-opacity="1"><g transform="translate(95.96857, 252.211815)"><g><path d="M 11.054688 0 C 9.644531 -1.550781 8.308594 -3.90625 7.535156 -6.441406 L 12.78125 -6.441406 C 13.941406 -2.992188 16.757812 0.246094 20.628906 0.246094 C 22.425781 0.246094 24.679688 -0.421875 26.085938 -2.394531 L 25.488281 -3.027344 C 24.363281 -1.832031 22.566406 -1.972656 21.6875 -3.976562 C 20.277344 -7.253906 19.539062 -11.441406 18.023438 -15.949219 C 16.722656 -19.890625 13.097656 -24.046875 5.984375 -24.046875 L 5.984375 -23.128906 C 7.570312 -23.128906 8.203125 -21.617188 9.117188 -18.660156 C 8.203125 -17.53125 7.21875 -16.265625 6.441406 -15.066406 C 4.082031 -11.476562 0.632812 -5.070312 0.632812 0 Z M 12.496094 -7.289062 L 7.324219 -7.289062 C 6.546875 -10.28125 6.582031 -13.484375 8.167969 -15.878906 C 8.589844 -16.511719 9.011719 -17.074219 9.433594 -17.671875 C 10.457031 -14.363281 11.441406 -10.527344 12.496094 -7.289062 Z M 12.496094 -7.289062 "/></g></g></g><g fill="#ffffff" fill-opacity="1"><g transform="translate(122.617669, 252.211815)"><g><path d="M 22.847656 -1.054688 C 20.066406 -0.5625 17.707031 -2.429688 19.257812 -7.640625 C 21.050781 -12.074219 21.335938 -17.144531 19.996094 -19.046875 L 9.785156 -19.046875 C 15.242188 -16.125 17.847656 -1.40625 11.828125 -1.054688 C 10.210938 -0.949219 8.835938 -1.972656 9.929688 -9.222656 C 10.386719 -12.320312 10.703125 -15.347656 9.011719 -17.496094 C 6.054688 -21.230469 -0.0703125 -18.519531 -2.429688 -15.417969 L -1.867188 -14.855469 C -0.773438 -15.949219 0.386719 -16.230469 1.335938 -15.417969 C 2.710938 -14.222656 2.5 -12.25 2.042969 -9.433594 C 1.160156 -3.941406 4.261719 0.140625 10.386719 0.140625 C 13.414062 0.140625 15.808594 -1.726562 17.53125 -4.296875 C 17.53125 -1.621094 18.90625 0.140625 21.40625 0.140625 C 30.136719 0.140625 32.8125 -14.328125 32.316406 -19.046875 L 22.109375 -19.046875 C 26.085938 -15.3125 28.691406 -2.078125 22.847656 -1.054688 Z M 22.847656 -1.054688 "/></g></g></g><g fill="#ffffff" fill-opacity="1"><g transform="translate(158.595592, 252.211815)"><g><path d="M 8.027344 -8.589844 C 20.699219 -11.6875 20.417969 -19.292969 11.125 -19.292969 C 4.824219 -19.292969 0.597656 -15.277344 0.597656 -9.539062 C 0.597656 -3.765625 4.824219 0.246094 11.125 0.246094 C 16.476562 0.246094 18.695312 -1.550781 21.6875 -4.964844 C 21.476562 -5.175781 21.265625 -5.421875 21.015625 -5.632812 C 16.96875 -1.160156 12.566406 -1.40625 8.484375 -7.851562 C 8.308594 -8.097656 8.167969 -8.34375 8.027344 -8.589844 Z M 11.019531 -15.277344 C 12.851562 -12.320312 10.527344 -9.929688 7.570312 -9.328125 C 5.246094 -13.308594 4.296875 -16.300781 6.089844 -17.460938 C 7.429688 -18.304688 9.539062 -17.671875 11.019531 -15.277344 Z M 11.019531 -15.277344 "/></g></g></g><g fill="#ffffff" fill-opacity="1"><g transform="translate(180.105035, 252.211815)"><g><path d="M 8.027344 -14.398438 C 2.957031 -15.667969 3.765625 -18.414062 5.84375 -18.414062 C 8.273438 -18.414062 9.714844 -13.519531 12.496094 -13.519531 C 15.527344 -13.519531 16.195312 -17.355469 16.195312 -19.046875 L 15.277344 -19.046875 C 15.277344 -17.988281 14.117188 -17.460938 12.78125 -17.460938 C 10.316406 -17.460938 9.046875 -19.292969 5.84375 -19.292969 C 3.027344 -19.292969 0.5625 -16.40625 0.667969 -13.378906 C 0.773438 -9.363281 4.296875 -7.148438 7.605469 -6.511719 C 11.511719 -5.773438 12.78125 -4.261719 13.097656 -2.921875 C 13.378906 -1.691406 12.601562 -0.84375 11.722656 -0.773438 C 9.257812 -0.5625 9.292969 -6.582031 4.71875 -6.582031 C 0.984375 -6.582031 0.878906 -1.726562 0.878906 0 L 1.761719 0 C 1.761719 -1.300781 2.464844 -2.042969 3.941406 -2.042969 C 6.371094 -2.042969 7.289062 0.246094 10.492188 0.246094 C 14.925781 0.246094 16.546875 -3.0625 16.652344 -6.441406 C 16.792969 -10.914062 13.378906 -13.027344 8.027344 -14.398438 Z M 8.027344 -14.398438 "/></g></g></g><g fill="#ffffff" fill-opacity="1"><g transform="translate(200.347172, 252.211815)"><g><path d="M 11.160156 -19.292969 C 4.859375 -19.292969 0.632812 -15.277344 0.632812 -9.539062 C 0.632812 -3.765625 4.859375 0.246094 11.160156 0.246094 C 17.425781 0.246094 21.652344 -3.765625 21.652344 -9.539062 C 21.652344 -15.277344 17.425781 -19.292969 11.160156 -19.292969 Z M 16.160156 -1.621094 C 14.152344 -0.351562 11.511719 -3.167969 8.519531 -7.851562 C 5.527344 -12.566406 4.117188 -16.160156 6.125 -17.460938 C 8.132812 -18.730469 10.773438 -15.914062 13.765625 -11.195312 C 16.722656 -6.511719 18.199219 -2.886719 16.160156 -1.621094 Z M 16.160156 -1.621094 "/></g></g></g><g fill="#ffffff" fill-opacity="1"><g transform="translate(225.588145, 252.211815)"><g><path d="M 0.808594 -19.046875 L 0.808594 0 L 8.519531 0 L 8.519531 -14.082031 C 8.554688 -15.808594 8.765625 -17.109375 9.855469 -17.53125 C 11.476562 -18.128906 12.921875 -17.179688 11.828125 -9.964844 C 11.371094 -6.863281 11.054688 -3.835938 12.746094 -1.691406 C 15.382812 1.65625 19.714844 0.0351562 22.320312 -2.289062 L 21.933594 -2.992188 C 18.90625 -1.230469 19.011719 -5.351562 19.714844 -9.75 C 19.960938 -11.300781 19.925781 -12.746094 19.609375 -14.011719 C 19.46875 -15.597656 19.75 -16.96875 21.265625 -17.53125 C 22.882812 -18.128906 24.328125 -17.179688 23.234375 -9.964844 C 22.777344 -6.863281 22.425781 -3.835938 24.117188 -1.691406 C 27.109375 2.042969 33.199219 -0.667969 35.558594 -3.765625 L 35.027344 -4.332031 C 33.902344 -3.203125 32.742188 -2.957031 31.824219 -3.765625 C 30.453125 -4.964844 30.664062 -6.933594 31.085938 -9.75 C 31.964844 -15.242188 29.429688 -19.292969 23.339844 -19.292969 C 21.121094 -19.292969 19.714844 -17.882812 18.023438 -17.039062 C 16.722656 -18.449219 14.679688 -19.292969 11.96875 -19.292969 C 9.082031 -19.292969 7.570312 -16.933594 5.140625 -16.40625 C 3.203125 -16.160156 1.691406 -16.371094 1.691406 -19.046875 Z M 0.808594 -19.046875 "/></g></g></g><g fill="#ffffff" fill-opacity="1"><g transform="translate(260.47477, 252.211815)"><g><path d="M 8.027344 -8.589844 C 20.699219 -11.6875 20.417969 -19.292969 11.125 -19.292969 C 4.824219 -19.292969 0.597656 -15.277344 0.597656 -9.539062 C 0.597656 -3.765625 4.824219 0.246094 11.125 0.246094 C 16.476562 0.246094 18.695312 -1.550781 21.6875 -4.964844 C 21.476562 -5.175781 21.265625 -5.421875 21.015625 -5.632812 C 16.96875 -1.160156 12.566406 -1.40625 8.484375 -7.851562 C 8.308594 -8.097656 8.167969 -8.34375 8.027344 -8.589844 Z M 11.019531 -15.277344 C 12.851562 -12.320312 10.527344 -9.929688 7.570312 -9.328125 C 5.246094 -13.308594 4.296875 -16.300781 6.089844 -17.460938 C 7.429688 -18.304688 9.539062 -17.671875 11.019531 -15.277344 Z M 11.019531 -15.277344 "/></g></g></g><g fill="#ffffff" fill-opacity="1"><g transform="translate(130.234193, 278.461813)"><g><path d="M 17.214844 -15.171875 C 22.460938 -15.171875 23.550781 -20.03125 23.023438 -23.902344 L 22.25 -23.902344 C 22.25 -22.355469 21.863281 -21.371094 20.136719 -21.371094 C 18.378906 -21.371094 16.089844 -24.082031 12.566406 -24.082031 C 5.984375 -24.082031 0.632812 -18.660156 0.632812 -11.933594 C 0.632812 -5.210938 5.984375 0.246094 12.566406 0.246094 C 17.25 0.246094 21.792969 -2.5 23.726562 -6.476562 L 23.023438 -6.863281 C 21.722656 -4.367188 19.292969 -2.078125 16.160156 -2.851562 C 13.90625 -3.378906 11.230469 -5.914062 8.90625 -9.644531 C 5.632812 -14.925781 4.613281 -20.207031 6.652344 -21.476562 C 10.210938 -23.726562 12.003906 -15.171875 17.214844 -15.171875 Z M 17.214844 -15.171875 "/></g></g></g><g fill="#ffffff" fill-opacity="1"><g transform="translate(156.953696, 278.461813)"><g><path d="M 11.160156 -19.292969 C 4.859375 -19.292969 0.632812 -15.277344 0.632812 -9.539062 C 0.632812 -3.765625 4.859375 0.246094 11.160156 0.246094 C 17.425781 0.246094 21.652344 -3.765625 21.652344 -9.539062 C 21.652344 -15.277344 17.425781 -19.292969 11.160156 -19.292969 Z M 16.160156 -1.621094 C 14.152344 -0.351562 11.511719 -3.167969 8.519531 -7.851562 C 5.527344 -12.566406 4.117188 -16.160156 6.125 -17.460938 C 8.132812 -18.730469 10.773438 -15.914062 13.765625 -11.195312 C 16.722656 -6.511719 18.199219 -2.886719 16.160156 -1.621094 Z M 16.160156 -1.621094 "/></g></g></g><g fill="#ffffff" fill-opacity="1"><g transform="translate(182.194669, 278.461813)"><g><path d="M 17.003906 -13.0625 L 10.246094 -13.0625 C 8.730469 -15.527344 4.4375 -15.597656 4.152344 -17.460938 C 4.011719 -18.414062 4.367188 -19.398438 5.84375 -19.398438 C 8.273438 -19.398438 8.484375 -15.136719 12.992188 -15.136719 C 17.601562 -15.136719 18.871094 -19.996094 18.34375 -23.867188 L 17.53125 -23.867188 C 17.53125 -22.320312 17.25 -21.335938 15.667969 -21.335938 C 13.941406 -21.335938 13.203125 -24.152344 9.714844 -24.152344 C 6.230469 -24.152344 3.097656 -22.496094 3.097656 -16.476562 L 3.097656 -13.0625 L 0.632812 -13.0625 L 0.632812 -12.214844 L 3.097656 -12.214844 L 3.097656 0 L 10.808594 0 L 10.808594 -11.019531 C 10.808594 -11.441406 10.738281 -11.863281 10.632812 -12.214844 L 17.003906 -12.214844 Z M 17.003906 -13.0625 "/></g></g></g><g fill="#ffffff" fill-opacity="1"><g transform="translate(204.196964, 278.461813)"><g><path d="M 17.003906 -13.0625 L 10.246094 -13.0625 C 8.730469 -15.527344 4.4375 -15.597656 4.152344 -17.460938 C 4.011719 -18.414062 4.367188 -19.398438 5.84375 -19.398438 C 8.273438 -19.398438 8.484375 -15.136719 12.992188 -15.136719 C 17.601562 -15.136719 18.871094 -19.996094 18.34375 -23.867188 L 17.53125 -23.867188 C 17.53125 -22.320312 17.25 -21.335938 15.667969 -21.335938 C 13.941406 -21.335938 13.203125 -24.152344 9.714844 -24.152344 C 6.230469 -24.152344 3.097656 -22.496094 3.097656 -16.476562 L 3.097656 -13.0625 L 0.632812 -13.0625 L 0.632812 -12.214844 L 3.097656 -12.214844 L 3.097656 0 L 10.808594 0 L 10.808594 -11.019531 C 10.808594 -11.441406 10.738281 -11.863281 10.632812 -12.214844 L 17.003906 -12.214844 Z M 17.003906 -13.0625 "/></g></g></g><g fill="#ffffff" fill-opacity="1"><g transform="translate(226.199259, 278.461813)"><g><path d="M 8.027344 -8.589844 C 20.699219 -11.6875 20.417969 -19.292969 11.125 -19.292969 C 4.824219 -19.292969 0.597656 -15.277344 0.597656 -9.539062 C 0.597656 -3.765625 4.824219 0.246094 11.125 0.246094 C 16.476562 0.246094 18.695312 -1.550781 21.6875 -4.964844 C 21.476562 -5.175781 21.265625 -5.421875 21.015625 -5.632812 C 16.96875 -1.160156 12.566406 -1.40625 8.484375 -7.851562 C 8.308594 -8.097656 8.167969 -8.34375 8.027344 -8.589844 Z M 11.019531 -15.277344 C 12.851562 -12.320312 10.527344 -9.929688 7.570312 -9.328125 C 5.246094 -13.308594 4.296875 -16.300781 6.089844 -17.460938 C 7.429688 -18.304688 9.539062 -17.671875 11.019531 -15.277344 Z M 11.019531 -15.277344 "/></g></g></g></svg>